<svg xmlns="http://www.w3.org/2000/svg" height="800" width="1200" viewBox="-8.74785 -14.89175 75.8147 89.3505"><g fill="#F7981F"><path d="M24.879 56.565c0 1.657 1.345 3.002 3.002 3.002h27.436c1.658 0 3.002-1.345 3.002-3.002V28.46c0-1.658-1.344-3.002-3.002-3.002H27.881c-1.657 0-3.002 1.344-3.002 3.002z"/><path d="M22.232 25.846c0-1.658 1.345-3.002 3.002-3.002H45.8v-7.145c0-1.658-1.344-3.002-3.001-3.002H15.365c-1.658 0-3.002 1.344-3.002 3.002v28.104c0 1.658 1.344 3.002 3.002 3.002h6.867z"/><path d="M9.87 13.149c0-1.658 1.344-3.002 3.002-3.002h20.566V3.002C33.438 1.344 32.093 0 30.436 0H3.002C1.344 0 0 1.344 0 3.002v28.105c0 1.657 1.344 3.002 3.002 3.002H9.87z"/></g></svg>